<?xml version="1.0" standalone="no"?>
<!DOCTYPE svg PUBLIC "-//W3C//DTD SVG 20010904//EN"
 "http://www.w3.org/TR/2001/REC-SVG-20010904/DTD/svg10.dtd">
<svg version="1.0" xmlns="http://www.w3.org/2000/svg"
 width="4266.000000pt" height="4266.000000pt" viewBox="0 0 4266.000000 4266.000000"
 preserveAspectRatio="xMidYMid meet">

<g transform="translate(0.000000,4266.000000) scale(0.100000,-0.100000)"
fill="#000000" stroke="none">
<path d="M20560 39384 c-52 -2 -225 -13 -385 -24 -2599 -185 -5083 -945 -7280
-2230 -1768 -1034 -3350 -2411 -4657 -4055 -1758 -2211 -2902 -4842 -3387
-7785 -52 -313 -96 -632 -110 -785 -75 -844 -78 -2888 -5 -3575 41 -393 138
-1018 230 -1484 446 -2258 1252 -4198 2569 -6186 665 -1003 1172 -1631 2028
-2509 l325 -333 -48 -102 c-118 -249 -170 -505 -170 -834 0 -250 30 -453 96
-652 83 -248 246 -479 584 -824 667 -681 1708 -1441 2842 -2072 280 -156 883
-460 1168 -588 2755 -1243 5832 -1732 8810 -1401 1530 171 3089 559 4480 1117
1345 540 2540 1222 3697 2110 617 474 1153 982 1361 1291 179 264 282 642 282
1032 0 302 -55 556 -170 784 -27 55 -50 105 -50 111 0 6 102 118 227 248 1759
1840 2964 3657 3800 5727 573 1418 900 2680 1097 4235 67 521 80 954 73 2273
-7 1169 -14 1339 -83 1852 -367 2759 -1391 5426 -2920 7608 -942 1342 -2315
2767 -3589 3723 -2121 1591 -4457 2610 -7040 3068 -681 121 -1333 195 -2185
247 -167 10 -1389 20 -1590 13z m1425 -1144 c337 -13 687 -35 950 -60 2139
-203 4329 -922 6285 -2065 2151 -1258 3964 -3022 5287 -5145 1029 -1652 1755
-3532 2107 -5460 181 -990 247 -1746 247 -2810 0 -1417 -144 -2662 -451 -3900
-479 -1928 -1379 -3812 -2616 -5477 -486 -654 -1128 -1388 -1726 -1972 l-178
-174 -47 39 c-791 643 -1343 1105 -1343 1124 0 5 28 26 63 48 104 66 196 171
397 452 179 250 534 738 1104 1515 834 1138 1050 1436 1117 1537 195 297 196
429 5 622 -150 152 -617 509 -764 583 -121 62 -180 64 -287 13 -158 -76 -159
-77 -1395 -1780 -1220 -1682 -1747 -2288 -2435 -2800 -685 -511 -1679 -1038
-2608 -1384 -966 -360 -2056 -621 -2922 -700 -427 -39 -794 -56 -1390 -63
-743 -8 -1081 11 -1655 93 -1896 272 -3642 910 -5045 1845 -389 259 -610 436
-903 724 -523 512 -1020 1133 -2204 2756 -585 802 -853 1154 -932 1227 -163
150 -371 125 -616 -74 -107 -86 -284 -221 -408 -309 -106 -75 -201 -176 -238
-251 -25 -52 -29 -70 -29 -150 0 -84 3 -95 37 -165 84 -168 349 -549 1032
-1484 269 -368 609 -834 755 -1035 573 -790 817 -1099 923 -1171 32 -22 58
-44 58 -48 0 -12 -94 -97 -203 -183 -365 -290 -673 -539 -921 -746 -158 -133
-292 -242 -297 -242 -28 0 -410 397 -760 790 -1100 1236 -1870 2352 -2540
3684 -1841 3657 -2179 7797 -955 11691 908 2888 2607 5431 4913 7352 1839
1532 4057 2633 6393 3172 959 221 1831 341 2770 380 281 12 1132 12 1425 1z
m-9200 -26751 c211 -25 483 -153 657 -309 72 -64 150 -179 177 -262 45 -137
51 -318 14 -466 -24 -100 -75 -213 -150 -339 l-68 -111 -185 93 c-218 110
-310 167 -310 192 0 10 27 63 60 118 70 115 100 202 100 286 0 76 -16 115 -70
163 -91 82 -202 110 -285 71 -92 -43 -245 -227 -481 -580 -367 -546 -576 -896
-630 -1050 -25 -74 -23 -169 5 -227 64 -133 266 -216 384 -159 85 41 339 326
396 445 21 43 22 48 8 70 -9 13 -57 50 -106 83 l-90 59 142 211 143 210 99
-59 c469 -276 595 -354 591 -364 -7 -19 -343 -539 -409 -633 -137 -197 -299
-375 -410 -450 -177 -120 -384 -160 -545 -105 -385 133 -655 383 -744 691 -32
111 -32 313 0 426 37 130 162 365 420 787 137 223 377 597 450 699 202 284
457 486 644 510 90 12 94 12 193 0z m17276 -139 c232 -77 328 -164 532 -475
241 -369 296 -568 232 -834 l-25 -103 19 -32 c37 -60 235 -241 531 -487 306
-255 470 -402 470 -423 0 -22 -272 -208 -382 -262 l-56 -27 -74 54 c-40 30
-167 132 -282 228 -475 395 -603 491 -678 512 -34 9 -46 7 -93 -15 -36 -16
-59 -34 -70 -55 -14 -29 -14 -34 1 -63 30 -58 192 -314 417 -658 121 -184 221
-340 224 -346 7 -19 -184 -162 -357 -266 -73 -43 -98 -54 -106 -45 -6 7 -214
323 -461 702 -987 1513 -1281 1980 -1269 2010 11 29 370 253 661 413 238 130
331 171 440 192 129 24 208 20 326 -20z m-15740 -706 c112 -67 213 -142 243
-181 21 -28 23 -4 -60 -593 -62 -444 -86 -641 -79 -649 11 -11 329 323 664
696 84 94 163 174 176 177 37 9 110 -18 315 -120 l195 -96 -687 -682 -686
-681 -201 -400 c-203 -405 -403 -788 -424 -813 -8 -10 -27 -13 -64 -10 -65 6
-318 128 -382 185 l-42 38 29 70 c51 122 135 299 344 730 l205 421 47 589 c77
963 122 1425 142 1457 6 9 93 -36 265 -138z m14071 -139 c56 -74 220 -367 211
-375 -9 -9 -543 -286 -675 -351 -49 -24 -88 -48 -88 -55 0 -17 318 -646 335
-663 20 -20 36 -14 295 109 113 54 234 110 269 125 63 26 65 26 79 8 17 -23
198 -390 207 -420 5 -20 -4 -27 -92 -71 -54 -27 -191 -91 -305 -142 -115 -51
-208 -97 -208 -101 0 -31 348 -696 394 -754 l24 -30 78 34 c44 19 231 110 416
203 186 92 341 168 346 168 15 0 262 -431 262 -458 0 -9 -882 -449 -1195 -596
-164 -77 -181 -83 -193 -68 -36 46 -1022 2024 -1328 2661 l-103 215 32 22 c60
40 311 174 612 326 375 190 544 268 570 265 10 -1 36 -24 57 -52z m-1438 -658
c40 -40 75 -110 136 -273 33 -88 60 -162 60 -166 0 -10 -134 -63 -260 -102
-121 -38 -186 -69 -204 -98 -8 -14 -5 -35 16 -90 14 -40 157 -426 316 -858
354 -960 572 -1557 572 -1570 0 -15 -212 -114 -325 -153 -110 -38 -174 -51
-191 -40 -6 5 -40 87 -74 183 -162 455 -729 1976 -829 2224 -22 54 -45 104
-51 110 -18 18 -157 -17 -308 -78 -76 -31 -141 -56 -144 -56 -7 0 -117 260
-142 333 -20 61 -21 126 0 155 25 37 93 64 409 167 165 53 367 122 450 152
219 81 517 183 533 183 7 0 23 -10 36 -23z m-10566 -173 c164 -53 298 -98 300
-99 1 -1 -6 -128 -18 -281 -39 -546 -83 -1419 -78 -1559 l3 -90 38 59 c58 89
279 470 621 1073 180 318 312 540 319 538 7 -3 153 -43 325 -90 172 -46 322
-89 332 -95 15 -8 20 -21 20 -51 0 -23 -67 -275 -149 -563 -82 -286 -213 -748
-290 -1026 -77 -278 -203 -723 -279 -990 l-138 -485 -42 2 c-47 2 -303 62
-398 94 -105 34 -105 35 -51 202 93 288 356 1169 483 1620 36 127 68 240 71
251 19 64 -58 -55 -255 -394 -311 -539 -755 -1270 -771 -1270 -9 0 -83 18
-166 38 l-150 38 3 160 c2 87 10 398 18 689 14 534 19 1043 9 1033 -3 -3 -94
-284 -201 -624 -107 -341 -245 -771 -305 -958 l-111 -339 -43 6 c-24 4 -140
38 -258 77 l-215 70 53 163 c785 2369 951 2865 966 2884 6 7 23 13 36 13 14 0
158 -43 321 -96z m8572 -446 c162 -35 373 -223 479 -428 47 -91 91 -211 91
-249 0 -40 -31 -75 -90 -100 -42 -18 -361 -101 -389 -101 -5 0 -28 48 -52 106
-91 227 -183 306 -305 259 -130 -50 -182 -167 -138 -316 58 -198 192 -320 619
-564 94 -54 197 -116 230 -138 339 -227 563 -521 615 -808 16 -88 14 -271 -4
-360 -9 -41 -35 -114 -60 -164 -74 -149 -185 -248 -390 -346 -274 -131 -554
-127 -789 12 -94 55 -218 182 -279 284 -73 123 -158 357 -158 437 0 59 24 71
238 112 239 46 256 46 282 4 11 -18 28 -58 37 -88 72 -248 203 -350 398 -310
51 10 67 19 105 59 32 33 51 64 64 104 22 71 17 113 -27 222 -84 208 -225 337
-567 519 -380 203 -614 405 -756 652 -83 145 -89 180 -89 484 l0 265 33 66
c23 48 53 87 107 138 222 211 529 307 795 249z m-1813 -339 c33 -12 78 -80
107 -162 14 -39 100 -312 191 -605 91 -293 266 -849 389 -1235 299 -939 358
-1128 354 -1131 -11 -11 -481 -86 -532 -86 -21 0 -28 21 -117 335 -87 310 -96
335 -116 335 -99 0 -580 -63 -595 -78 -12 -12 -27 -170 -39 -422 -6 -135 -12
-246 -13 -246 0 -1 -109 -7 -241 -13 -132 -6 -260 -13 -286 -15 l-45 -3 13 81
c20 125 72 603 198 1812 128 1234 144 1386 149 1391 3 4 357 48 441 56 46 4
110 -2 142 -14z m-3150 -19 c122 -11 166 -27 192 -72 11 -17 34 -91 51 -162
72 -301 266 -1309 290 -1501 13 -107 23 -135 49 -135 26 0 37 17 45 70 4 25
38 164 77 310 64 240 124 450 335 1184 l69 238 225 -6 c124 -3 283 -9 354 -12
l129 -6 -7 -212 c-73 -2319 -96 -2997 -101 -3013 -3 -9 -25 -13 -63 -13 -58 0
-363 27 -392 34 -8 2 -27 7 -42 10 l-28 6 0 169 c0 423 63 1641 96 1849 30
189 10 150 -111 -213 -46 -137 -132 -403 -190 -590 -135 -431 -260 -807 -285
-855 -21 -40 -41 -50 -108 -50 -73 0 -234 23 -238 34 -2 6 -58 286 -124 621
-158 806 -242 1216 -248 1211 -9 -10 -80 -1219 -102 -1761 -15 -348 -18 -385
-36 -385 -34 0 -415 41 -472 51 l-63 11 6 82 c3 44 15 218 26 386 46 722 158
2193 189 2502 11 109 20 208 20 219 0 21 1 21 178 15 97 -4 223 -11 279 -16z"/>
<path d="M21030 36863 c-342 -18 -810 -103 -1064 -193 -133 -47 -139 -53 -132
-114 4 -28 32 -161 62 -296 60 -267 119 -552 128 -615 11 -83 -55 85 -171 434
-120 362 -137 403 -175 437 -59 54 -108 40 -437 -126 -454 -229 -871 -489
-871 -544 0 -22 75 -167 175 -341 430 -744 644 -1177 869 -1763 149 -390 366
-1076 366 -1161 0 -14 -51 -39 -227 -111 -377 -153 -681 -314 -993 -524 -650
-438 -1228 -1016 -1566 -1569 -273 -445 -531 -1028 -664 -1500 -42 -148 -93
-377 -86 -384 2 -3 94 67 203 154 557 447 1978 1502 2408 1790 567 378 1097
685 1825 1057 382 196 433 219 515 241 78 20 126 19 219 -5 115 -29 221 -78
761 -350 1310 -660 1806 -988 3380 -2240 451 -359 815 -630 846 -630 30 0 -19
196 -140 560 -195 585 -368 951 -656 1385 -205 311 -377 519 -659 800 -265
264 -503 460 -806 662 -370 247 -782 459 -1109 571 -74 25 -143 54 -153 64
-41 41 -21 131 139 613 272 823 479 1282 986 2185 191 340 257 472 257 515 0
50 -60 96 -365 277 -477 284 -813 444 -877 419 -13 -5 -40 -30 -59 -55 -19
-25 -37 -46 -40 -46 -3 0 -2 26 4 57 9 56 9 57 -21 84 -54 49 -348 133 -642
184 -374 65 -878 97 -1230 78z m580 -4057 c151 -32 435 -105 700 -181 345 -99
390 -114 390 -133 0 -24 -114 -130 -205 -191 -55 -36 -86 -51 -111 -51 -18 0
-123 23 -231 51 -109 28 -267 68 -351 90 -217 55 -361 72 -552 66 -177 -6
-307 -28 -522 -87 -341 -93 -454 -112 -512 -85 -63 30 -216 184 -216 218 0 29
929 300 1122 327 116 16 350 5 488 -24z"/>
<path d="M20950 31337 c-1408 -784 -2019 -1190 -4080 -2712 -366 -270 -749
-553 -852 -629 -104 -76 -190 -142 -193 -146 -7 -11 31 -2812 45 -3355 6 -220
15 -431 21 -470 6 -38 14 -206 18 -373 4 -166 10 -304 12 -306 2 -2 45 -32 94
-67 127 -89 188 -150 261 -260 183 -275 271 -616 244 -949 -28 -344 -127 -682
-310 -1055 -107 -219 -194 -360 -348 -564 -64 -86 -118 -159 -120 -163 -4 -9
210 -380 310 -538 538 -842 1594 -2025 2628 -2945 443 -395 1053 -866 1082
-837 10 10 -5 215 -47 637 -83 849 -133 2063 -195 4695 -19 817 -39 1491 -57
1903 l-17 409 -466 233 c-512 258 -727 376 -960 530 -499 328 -753 627 -846
993 -37 144 -47 287 -37 522 l8 205 105 -3 c133 -4 227 -21 465 -82 739 -190
2196 -697 2628 -914 139 -70 161 -93 173 -184 14 -100 9 -468 -9 -652 -55
-552 -141 -1098 -258 -1635 -89 -406 -117 -557 -108 -589 15 -51 61 -107 164
-199 118 -105 989 -815 1010 -823 8 -4 156 109 377 287 200 161 470 378 601
483 l239 191 -5 45 c-3 25 -30 149 -61 275 -64 269 -110 497 -165 830 -109
654 -200 1404 -204 1680 -2 152 6 169 113 224 233 121 703 295 1725 637 464
156 957 315 1205 389 115 35 179 48 247 52 l93 6 22 -49 c21 -46 23 -62 23
-239 -1 -206 -22 -362 -71 -532 -77 -266 -304 -541 -679 -823 -335 -252 -668
-442 -1280 -731 l-310 -146 -7 -49 c-4 -27 -21 -609 -38 -1294 -59 -2444 -91
-3495 -135 -4440 -24 -501 -40 -731 -95 -1304 -28 -291 -50 -535 -48 -543 4
-22 479 319 768 551 1070 860 2268 2163 2923 3180 98 153 347 584 347 601 0 5
-53 80 -118 166 -273 364 -476 790 -587 1231 -69 274 -77 384 -49 613 33 266
106 489 215 655 71 107 136 173 269 271 l106 78 13 258 c35 768 65 2114 76
3458 3 380 8 720 11 756 l5 65 -633 471 c-348 259 -797 595 -998 747 -1372
1039 -1939 1417 -2990 1993 -175 96 -898 483 -903 483 -1 0 -166 -91 -367
-203z"/>
<path d="M10203 29701 c-54 -14 -119 -59 -166 -113 -104 -123 -1216 -1704
-1496 -2128 -218 -329 -251 -405 -251 -574 1 -165 15 -183 326 -418 99 -76
213 -167 251 -203 73 -67 138 -104 184 -105 93 -1 216 159 1145 1480 874 1242
1009 1441 1038 1537 7 20 -5 31 -106 96 -157 102 -467 286 -563 334 -160 80
-286 113 -362 94z"/>
<path d="M32272 29675 c-100 -34 -187 -80 -387 -200 -278 -168 -429 -264 -438
-280 -22 -40 83 -217 451 -755 940 -1375 1513 -2165 1631 -2249 39 -28 55 -27
140 14 196 94 611 425 699 557 22 34 26 50 25 116 -1 144 -18 177 -311 618
-392 590 -1352 1953 -1484 2106 -88 102 -180 122 -326 73z"/>
<path d="M30350 29626 c-79 -17 -341 -165 -702 -397 -467 -300 -557 -410 -504
-619 24 -92 95 -231 167 -325 272 -356 1500 -2082 2249 -3160 389 -560 514
-728 625 -839 102 -102 165 -137 255 -144 138 -10 248 52 640 358 419 327 560
454 600 542 54 120 -4 347 -143 553 -51 76 -559 798 -1331 1890 -1190 1686
-1404 1980 -1489 2044 -68 52 -150 88 -229 101 -73 12 -67 12 -138 -4z"/>
<path d="M12073 29611 c-110 -37 -146 -76 -398 -416 -599 -808 -2369 -3306
-2591 -3657 -110 -174 -129 -218 -127 -299 3 -91 18 -181 39 -225 28 -58 114
-144 329 -329 269 -231 410 -344 531 -425 316 -211 469 -156 807 293 46 62
299 416 562 787 881 1243 1755 2465 2032 2838 203 275 243 355 243 486 0 194
-78 280 -515 570 -281 187 -371 241 -517 311 -174 84 -289 103 -395 66z"/>
<path d="M13401 27843 c-79 -41 -122 -89 -330 -367 -200 -268 -275 -373 -836
-1171 -197 -280 -492 -697 -655 -925 -492 -689 -620 -880 -620 -931 0 -51 144
-201 362 -376 121 -97 303 -219 355 -237 148 -52 324 -10 444 106 30 29 102
121 159 203 241 347 445 622 498 669 21 19 23 18 144 -58 68 -43 227 -149 353
-236 1029 -710 2201 -1512 2238 -1531 14 -8 20 -4 29 18 25 56 6 1264 -23
1503 -13 108 -27 154 -53 178 -12 11 -255 180 -541 377 -859 591 -963 664
-1125 780 -101 73 -156 119 -158 133 -7 45 150 301 356 578 174 235 226 322
257 428 48 164 -1 292 -176 460 -157 152 -521 411 -591 422 -24 4 -48 -3 -87
-23z"/>
<path d="M29065 27806 c-205 -65 -566 -344 -643 -498 -103 -204 -62 -321 285
-805 222 -309 373 -534 367 -544 -17 -27 -511 -370 -1386 -959 l-586 -395 -7
-170 c-3 -93 -7 -447 -8 -785 -2 -633 0 -670 37 -670 27 0 1107 726 2046 1375
524 362 646 445 656 445 50 0 304 -311 534 -655 154 -231 254 -317 401 -346
107 -21 218 20 418 155 203 137 504 401 517 452 16 64 -11 105 -971 1449 -287
402 -640 899 -785 1105 -145 206 -318 452 -384 545 -138 196 -223 288 -282
304 -52 14 -159 13 -209 -3z"/>
<path d="M16132 18897 c-17 -12 -65 -49 -108 -81 -305 -233 -2629 -1727 -2986
-1920 l-85 -46 -65 82 c-84 107 -239 327 -469 663 -269 395 -358 475 -531 484
-141 6 -272 -55 -556 -257 -248 -178 -398 -316 -443 -410 -57 -118 -4 -205
780 -1272 168 -228 465 -633 661 -900 400 -544 864 -1181 1019 -1400 142 -199
205 -274 259 -310 83 -55 133 -38 352 121 301 220 544 442 594 543 94 187 34
312 -507 1048 -136 185 -247 340 -247 345 0 12 410 292 1800 1229 1107 747
1460 993 1460 1017 0 44 -795 1015 -880 1074 -15 10 -23 9 -48 -10z"/>
<path d="M26424 18818 c-149 -139 -562 -614 -763 -877 l-72 -94 28 -30 c48
-50 197 -157 503 -359 631 -418 1839 -1249 2390 -1644 323 -232 304 -216 296
-242 -10 -30 -180 -285 -351 -527 -170 -240 -326 -473 -374 -558 -30 -52 -33
-65 -29 -120 7 -112 49 -181 201 -333 263 -261 625 -534 710 -534 86 0 146 59
382 375 531 712 2212 3027 2303 3172 67 107 129 231 137 276 18 93 -118 258
-394 479 -167 133 -341 231 -471 264 -88 22 -210 16 -272 -14 -77 -38 -219
-217 -654 -827 -137 -192 -258 -362 -269 -377 -11 -15 -24 -28 -28 -28 -12 0
-152 81 -327 188 -311 191 -737 469 -1782 1164 -587 389 -1074 708 -1082 708
-8 0 -45 -28 -82 -62z"/>
<path d="M33019 15188 c-40 -43 -165 -212 -399 -543 -128 -181 -340 -474 -470
-650 -361 -489 -647 -892 -690 -974 -12 -23 -10 -27 26 -59 60 -51 449 -308
522 -344 88 -44 172 -50 238 -18 96 47 228 193 471 520 754 1017 908 1231 956
1325 37 74 42 158 12 219 -35 72 -217 235 -488 438 -154 115 -151 113 -178 86z"/>
<path d="M9546 15145 c-144 -87 -400 -289 -498 -393 -54 -57 -71 -83 -84 -128
-15 -52 -15 -62 0 -123 24 -95 85 -195 320 -524 814 -1139 1054 -1444 1148
-1462 46 -9 93 6 183 58 218 125 595 408 595 446 0 18 -165 259 -330 481 -91
124 -321 437 -510 695 -513 702 -728 985 -749 985 -9 0 -43 -16 -75 -35z"/>
<path d="M29630 10805 c-79 -18 -172 -63 -224 -108 -32 -27 -38 -38 -33 -58 9
-36 148 -270 335 -564 90 -143 168 -264 172 -268 11 -12 213 125 270 182 62
62 83 111 88 199 4 61 0 86 -23 149 -60 171 -224 411 -309 455 -53 28 -184 34
-276 13z"/>
<path d="M22916 7988 c-3 -46 -7 -184 -10 -308 -3 -124 -15 -375 -27 -558 -12
-183 -19 -335 -16 -338 8 -8 399 55 410 65 20 20 -317 1221 -343 1221 -4 0
-11 -37 -14 -82z"/>
</g>
</svg>
